<?xml version="1.0" encoding="iso-8859-1"?>
<!-- Generator: Adobe Illustrator 19.0.0, SVG Export Plug-In . SVG Version: 6.00 Build 0)  -->
<svg version="1.1" id="Layer_1" xmlns="http://www.w3.org/2000/svg" xmlns:xlink="http://www.w3.org/1999/xlink" x="0px" y="0px"
	 viewBox="0 0 512.1 512.1" style="enable-background:new 0 0 512.1 512.1;" xml:space="preserve">
<path style="fill:#41479B;" d="M503.5,373.85h-468c-4.7,0-8.5-3.8-8.5-8.5V64.65c0-4.7,3.8-8.5,8.5-8.5h468.1c4.7,0,8.5,3.8,8.5,8.5
	v300.8C512,370.05,508.2,373.85,503.5,373.85z"/>
<path style="fill:#F5F5F5;" d="M512,64.45c0-4.6-3.7-8.3-8.3-8.3h-37.4l-154.9,101.5V56.15h-83.6v101.5l-155-101.5H35.4
	c-4.6,0-8.3,3.7-8.3,8.3v21.6l132.9,87.1H27.1v83.6H160l-132.9,87.1v21.6c0,4.6,3.7,8.3,8.3,8.3h37.4l154.9-101.5v101.5h83.6v-101.3
	l154.9,101.5h37.4c4.6,0,8.3-3.7,8.3-8.3v-21.6L379,256.95h133v-83.6H379.1L512,86.15V64.45L512,64.45z"/>
<g>
	<polygon style="fill:#FF4B55;" points="512,189.95 294.6,189.95 294.6,56.15 244.5,56.15 244.5,189.95 27.1,189.95 27.1,240.15 
		244.5,240.15 244.5,373.85 294.6,373.85 294.6,240.15 512,240.15 	"/>
	<path style="fill:#FF4B55;" d="M196.5,256.85L27.3,366.65c0.6,4,3.9,7.2,8.2,7.2H47l180.3-117.1h-30.8V256.85z"/>
	<path style="fill:#FF4B55;" d="M355.1,256.85h-30.7l180,116.9c4.2-0.4,7.5-3.9,7.5-8.2v-6.9L355.1,256.85z"/>
	<path style="fill:#FF4B55;" d="M27.1,73.75l153.2,99.5H211L31.9,56.95c-2.9,1.3-4.9,4.2-4.9,7.6C27.1,64.55,27.1,73.75,27.1,73.75z
		"/>
	<path style="fill:#FF4B55;" d="M342,173.25l169.7-110.2c-0.7-3.9-4-6.9-8.1-6.9h-12l-180.2,117.1H342z"/>
</g>
<path style="fill:#2E3033;" d="M18.8,483.55L18.8,483.55c-10.4,0-18.8-8.4-18.8-18.8V47.15c0-10.2,8.3-18.6,18.6-18.6h0.1
	c10.4,0,18.8,8.4,18.8,18.8v417.4C37.5,475.15,29.1,483.55,18.8,483.55z"/>
<g>
</g>
<g>
</g>
<g>
</g>
<g>
</g>
<g>
</g>
<g>
</g>
<g>
</g>
<g>
</g>
<g>
</g>
<g>
</g>
<g>
</g>
<g>
</g>
<g>
</g>
<g>
</g>
<g>
</g>
</svg>
