<?xml version="1.0" encoding="iso-8859-1"?>
<!-- Generator: Adobe Illustrator 19.0.0, SVG Export Plug-In . SVG Version: 6.00 Build 0)  -->
<svg version="1.1" id="Layer_1" xmlns="http://www.w3.org/2000/svg" xmlns:xlink="http://www.w3.org/1999/xlink" x="0px" y="0px"
	 viewBox="0 0 512 512" style="enable-background:new 0 0 512 512;" xml:space="preserve">
<path style="fill:#FFFFFF;" d="M340.757,112.572V59.07H203.178v290.445h137.58V143.146c0-4.222,3.421-7.643,7.643-7.643v-15.287
	C344.179,120.215,340.757,116.794,340.757,112.572z"/>
<rect x="50.313" y="59.071" style="fill:#164FCE;" width="137.581" height="290.449"/>
<path style="fill:#ED1F34;" d="M356.044,112.572c0,4.221-3.422,7.643-7.644,7.643v15.287c4.222,0,7.644,3.422,7.644,7.643v206.369
	h137.579V59.07H356.044V112.572z"/>
<path d="M504.356,43.783H45.76c-4.221,0-7.643,3.422-7.643,7.643v305.731c0,4.222,3.422,7.643,7.643,7.643h458.596
	c4.223,0,7.644-3.422,7.644-7.643V51.426C512,47.205,508.579,43.783,504.356,43.783z M493.623,349.514H356.044V143.146
	c0-4.222-3.422-7.643-7.644-7.643c-4.222,0-7.643,3.422-7.643,7.643v206.369H203.178V59.07h137.58v53.503
	c0,4.221,3.421,7.643,7.643,7.643c4.222,0,7.644-3.422,7.644-7.643V59.07h137.579v290.444H493.623z M50.313,59.07h137.579v290.445
	H50.313V59.07z"/>
<path style="fill:#2E3033;" d="M20.886,481.095c-6.404,0-11.614-5.211-11.614-11.614V42.413c0-6.345,5.162-11.507,11.507-11.507
	h1.517c6.405,0,11.614,5.211,11.614,11.614v426.96c0,6.405-5.211,11.614-11.614,11.614h-1.41V481.095z"/>
<path d="M22.296,21.634h-1.517C9.321,21.634,0,30.955,0,42.413V469.48c0,11.516,9.369,20.886,20.886,20.886h1.409
	c11.517,0,20.886-9.37,20.886-20.886V42.52C43.182,31.003,33.813,21.634,22.296,21.634z M27.729,469.48
	c0,2.996-2.437,5.433-5.433,5.433h-1.409c-2.996,0-5.433-2.437-5.433-5.433V42.413c0-2.937,2.389-5.326,5.326-5.326h1.517
	c2.996,0,5.433,2.437,5.433,5.433V469.48H27.729z"/>
<g>
</g>
<g>
</g>
<g>
</g>
<g>
</g>
<g>
</g>
<g>
</g>
<g>
</g>
<g>
</g>
<g>
</g>
<g>
</g>
<g>
</g>
<g>
</g>
<g>
</g>
<g>
</g>
<g>
</g>
</svg>
