<?xml version="1.0" encoding="iso-8859-1"?>
<!-- Generator: Adobe Illustrator 19.0.0, SVG Export Plug-In . SVG Version: 6.00 Build 0)  -->
<svg version="1.1" id="Layer_1" xmlns="http://www.w3.org/2000/svg" xmlns:xlink="http://www.w3.org/1999/xlink" x="0px" y="0px"
	 viewBox="0 0 511.999 511.999" style="enable-background:new 0 0 511.999 511.999;" xml:space="preserve">
<path style="fill:#FFE000;" d="M343.168,111.992V58.273H205.034v291.619h138.136V142.689c0-4.239,3.436-7.674,7.674-7.674v-15.349
	C346.604,119.666,343.168,116.231,343.168,111.992z"/>
<path style="fill:#ED1F34;" d="M473.629,349.891h23.022V58.273H358.517v53.72c0,4.238-3.436,7.674-7.674,7.674v15.349
	c4.239,0,7.674,3.436,7.674,7.674v207.203h84.416c4.239,0,7.674,3.435,7.674,7.674h15.349
	C465.955,353.327,469.391,349.891,473.629,349.891z"/>
<rect x="51.551" y="58.274" style="fill:#333333;" width="138.137" height="291.623"/>
<path d="M504.326,42.925H43.876c-4.238,0-7.674,3.436-7.674,7.674v306.966c0,4.239,3.436,7.674,7.674,7.674h399.056
	c4.239,0,7.674-3.436,7.674-7.674s-3.436-7.674-7.674-7.674h-84.416V142.689c0-4.239-3.436-7.674-7.674-7.674
	s-7.674,3.436-7.674,7.674v207.203H205.034V58.273h138.136v53.72c0,4.238,3.436,7.674,7.674,7.674c4.239,0,7.674-3.436,7.674-7.674
	v-53.72h138.134v291.619h-23.022c-4.239,0-7.674,3.435-7.674,7.674s3.436,7.674,7.674,7.674h30.696c4.239,0,7.674-3.436,7.674-7.674
	V50.599C512,46.361,508.564,42.925,504.326,42.925z M51.551,58.273h138.135v291.619H51.551V58.273z"/>
<path style="fill:#2E3033;" d="M20.97,482.004c-6.429,0-11.661-5.232-11.661-11.661V41.549c0-6.371,5.183-11.554,11.554-11.554
	h1.524c6.431,0,11.661,5.232,11.661,11.661v428.685c0,6.431-5.232,11.661-11.661,11.661H20.97V482.004z"/>
<path d="M22.386,20.686h-1.524C9.359,20.686,0,30.045,0,41.549v428.793c0,11.563,9.407,20.97,20.97,20.97h1.415
	c11.564,0,20.97-9.407,20.97-20.97V41.657C43.357,30.094,33.949,20.686,22.386,20.686z M27.841,470.342
	c0,3.008-2.447,5.455-5.455,5.455h-1.415c-3.008,0-5.455-2.447-5.455-5.455V41.549c0-2.949,2.399-5.348,5.348-5.348h1.524
	c3.008,0,5.455,2.447,5.455,5.455v428.686H27.841z"/>
<g>
</g>
<g>
</g>
<g>
</g>
<g>
</g>
<g>
</g>
<g>
</g>
<g>
</g>
<g>
</g>
<g>
</g>
<g>
</g>
<g>
</g>
<g>
</g>
<g>
</g>
<g>
</g>
<g>
</g>
</svg>
